{
	"asset":{
		"generator":"Khronos glTF Blender I/O v3.6.27",
		"version":"2.0"
	},
	"scene":0,
	"scenes":[
		{
			"name":"Scene",
			"nodes":[
				0
			]
		}
	],
	"nodes":[
		{
			"mesh":0,
			"name":"beach01.ihq.sprite"
		}
	],
	"materials":[
		{
			"doubleSided":true,
			"name":"beach01",
			"pbrMetallicRoughness":{}
		},
		{
			"doubleSided":true,
			"name":"grass01",
			"pbrMetallicRoughness":{}
		},
		{
			"doubleSided":true,
			"name":"water01",
			"pbrMetallicRoughness":{}
		},
		{
			"doubleSided":true,
			"name":"beach02",
			"pbrMetallicRoughness":{}
		},
		{
			"doubleSided":true,
			"name":"beach04",
			"pbrMetallicRoughness":{}
		},
		{
			"doubleSided":true,
			"name":"beach03",
			"pbrMetallicRoughness":{}
		},
		{
			"doubleSided":true,
			"name":"trees01",
			"pbrMetallicRoughness":{}
		},
		{
			"alphaMode":"BLEND",
			"doubleSided":true,
			"name":"tree01",
			"pbrMetallicRoughness":{
				"baseColorTexture":{
					"index":0
				},
				"metallicFactor":0,
				"roughnessFactor":0.5
			}
		}
	],
	"meshes":[
		{
			"name":"beach01.ihq.sprite",
			"primitives":[
				{
					"attributes":{
						"POSITION":0,
						"NORMAL":1,
						"TEXCOORD_0":2
					},
					"indices":3,
					"material":0
				},
				{
					"attributes":{
						"POSITION":4,
						"NORMAL":5,
						"TEXCOORD_0":6
					},
					"indices":7,
					"material":1
				},
				{
					"attributes":{
						"POSITION":8,
						"NORMAL":9,
						"TEXCOORD_0":10
					},
					"indices":11,
					"material":2
				},
				{
					"attributes":{
						"POSITION":12,
						"NORMAL":13,
						"TEXCOORD_0":14
					},
					"indices":15,
					"material":3
				},
				{
					"attributes":{
						"POSITION":16,
						"NORMAL":17,
						"TEXCOORD_0":18
					},
					"indices":19,
					"material":4
				},
				{
					"attributes":{
						"POSITION":20,
						"NORMAL":21,
						"TEXCOORD_0":22
					},
					"indices":23,
					"material":5
				},
				{
					"attributes":{
						"POSITION":24,
						"NORMAL":25,
						"TEXCOORD_0":26
					},
					"indices":27,
					"material":6
				},
				{
					"attributes":{
						"POSITION":28,
						"NORMAL":29,
						"TEXCOORD_0":30
					},
					"indices":31,
					"material":7
				}
			]
		}
	],
	"textures":[
		{
			"sampler":0,
			"source":0
		}
	],
	"images":[
		{
			"bufferView":32,
			"mimeType":"image/png",
			"name":"tree.rgba16"
		}
	],
	"accessors":[
		{
			"bufferView":0,
			"componentType":5126,
			"count":81,
			"max":[
				121.03904724121094,
				11.303146362304688,
				274.421630859375
			],
			"min":[
				41.84796142578125,
				-8.900145530700684,
				-275.4066162109375
			],
			"type":"VEC3"
		},
		{
			"bufferView":1,
			"componentType":5126,
			"count":81,
			"type":"VEC3"
		},
		{
			"bufferView":2,
			"componentType":5126,
			"count":81,
			"type":"VEC2"
		},
		{
			"bufferView":3,
			"componentType":5123,
			"count":312,
			"type":"SCALAR"
		},
		{
			"bufferView":4,
			"componentType":5126,
			"count":448,
			"max":[
				230.86923217773438,
				68.17121887207031,
				371.74993896484375
			],
			"min":[
				-468.4725646972656,
				0.1538982391357422,
				-373.7877502441406
			],
			"type":"VEC3"
		},
		{
			"bufferView":5,
			"componentType":5126,
			"count":448,
			"type":"VEC3"
		},
		{
			"bufferView":6,
			"componentType":5126,
			"count":448,
			"type":"VEC2"
		},
		{
			"bufferView":7,
			"componentType":5123,
			"count":1776,
			"type":"SCALAR"
		},
		{
			"bufferView":8,
			"componentType":5126,
			"count":369,
			"max":[
				511.86932373046875,
				11.303146362304688,
				371.74993896484375
			],
			"min":[
				59.111854553222656,
				-8.900145530700684,
				-373.7877502441406
			],
			"type":"VEC3"
		},
		{
			"bufferView":9,
			"componentType":5126,
			"count":369,
			"type":"VEC3"
		},
		{
			"bufferView":10,
			"componentType":5126,
			"count":369,
			"type":"VEC2"
		},
		{
			"bufferView":11,
			"componentType":5123,
			"count":1308,
			"type":"SCALAR"
		},
		{
			"bufferView":12,
			"componentType":5126,
			"count":132,
			"max":[
				83.92699432373047,
				33.81552505493164,
				273.9619140625
			],
			"min":[
				-201.81378173828125,
				-3.2282907962799072,
				-275.4066162109375
			],
			"type":"VEC3"
		},
		{
			"bufferView":13,
			"componentType":5126,
			"count":132,
			"type":"VEC3"
		},
		{
			"bufferView":14,
			"componentType":5126,
			"count":132,
			"type":"VEC2"
		},
		{
			"bufferView":15,
			"componentType":5123,
			"count":480,
			"type":"SCALAR"
		},
		{
			"bufferView":16,
			"componentType":5126,
			"count":212,
			"max":[
				81.85003662109375,
				36.452972412109375,
				210.32925415039062
			],
			"min":[
				-200.84194946289062,
				-3.698476791381836,
				-145.91839599609375
			],
			"type":"VEC3"
		},
		{
			"bufferView":17,
			"componentType":5126,
			"count":212,
			"type":"VEC3"
		},
		{
			"bufferView":18,
			"componentType":5126,
			"count":212,
			"type":"VEC2"
		},
		{
			"bufferView":19,
			"componentType":5123,
			"count":828,
			"type":"SCALAR"
		},
		{
			"bufferView":20,
			"componentType":5126,
			"count":204,
			"max":[
				55.29747772216797,
				36.555816650390625,
				275.5639953613281
			],
			"min":[
				-217.3155975341797,
				0.2931654453277588,
				-274.7258605957031
			],
			"type":"VEC3"
		},
		{
			"bufferView":21,
			"componentType":5126,
			"count":204,
			"type":"VEC3"
		},
		{
			"bufferView":22,
			"componentType":5126,
			"count":204,
			"type":"VEC2"
		},
		{
			"bufferView":23,
			"componentType":5123,
			"count":780,
			"type":"SCALAR"
		},
		{
			"bufferView":24,
			"componentType":5126,
			"count":72,
			"max":[
				-43.13505554199219,
				36.452972412109375,
				210.32925415039062
			],
			"min":[
				-208.93212890625,
				13.838582038879395,
				-110.8772201538086
			],
			"type":"VEC3"
		},
		{
			"bufferView":25,
			"componentType":5126,
			"count":72,
			"type":"VEC3"
		},
		{
			"bufferView":26,
			"componentType":5126,
			"count":72,
			"type":"VEC2"
		},
		{
			"bufferView":27,
			"componentType":5123,
			"count":252,
			"type":"SCALAR"
		},
		{
			"bufferView":28,
			"componentType":5126,
			"count":480,
			"max":[
				72.47213745117188,
				37.44406509399414,
				207.61924743652344
			],
			"min":[
				-196.23707580566406,
				-0.3330702781677246,
				-144.62030029296875
			],
			"type":"VEC3"
		},
		{
			"bufferView":29,
			"componentType":5126,
			"count":480,
			"type":"VEC3"
		},
		{
			"bufferView":30,
			"componentType":5126,
			"count":480,
			"type":"VEC2"
		},
		{
			"bufferView":31,
			"componentType":5123,
			"count":720,
			"type":"SCALAR"
		}
	],
	"bufferViews":[
		{
			"buffer":0,
			"byteLength":972,
			"byteOffset":0,
			"target":34962
		},
		{
			"buffer":0,
			"byteLength":972,
			"byteOffset":972,
			"target":34962
		},
		{
			"buffer":0,
			"byteLength":648,
			"byteOffset":1944,
			"target":34962
		},
		{
			"buffer":0,
			"byteLength":624,
			"byteOffset":2592,
			"target":34963
		},
		{
			"buffer":0,
			"byteLength":5376,
			"byteOffset":3216,
			"target":34962
		},
		{
			"buffer":0,
			"byteLength":5376,
			"byteOffset":8592,
			"target":34962
		},
		{
			"buffer":0,
			"byteLength":3584,
			"byteOffset":13968,
			"target":34962
		},
		{
			"buffer":0,
			"byteLength":3552,
			"byteOffset":17552,
			"target":34963
		},
		{
			"buffer":0,
			"byteLength":4428,
			"byteOffset":21104,
			"target":34962
		},
		{
			"buffer":0,
			"byteLength":4428,
			"byteOffset":25532,
			"target":34962
		},
		{
			"buffer":0,
			"byteLength":2952,
			"byteOffset":29960,
			"target":34962
		},
		{
			"buffer":0,
			"byteLength":2616,
			"byteOffset":32912,
			"target":34963
		},
		{
			"buffer":0,
			"byteLength":1584,
			"byteOffset":35528,
			"target":34962
		},
		{
			"buffer":0,
			"byteLength":1584,
			"byteOffset":37112,
			"target":34962
		},
		{
			"buffer":0,
			"byteLength":1056,
			"byteOffset":38696,
			"target":34962
		},
		{
			"buffer":0,
			"byteLength":960,
			"byteOffset":39752,
			"target":34963
		},
		{
			"buffer":0,
			"byteLength":2544,
			"byteOffset":40712,
			"target":34962
		},
		{
			"buffer":0,
			"byteLength":2544,
			"byteOffset":43256,
			"target":34962
		},
		{
			"buffer":0,
			"byteLength":1696,
			"byteOffset":45800,
			"target":34962
		},
		{
			"buffer":0,
			"byteLength":1656,
			"byteOffset":47496,
			"target":34963
		},
		{
			"buffer":0,
			"byteLength":2448,
			"byteOffset":49152,
			"target":34962
		},
		{
			"buffer":0,
			"byteLength":2448,
			"byteOffset":51600,
			"target":34962
		},
		{
			"buffer":0,
			"byteLength":1632,
			"byteOffset":54048,
			"target":34962
		},
		{
			"buffer":0,
			"byteLength":1560,
			"byteOffset":55680,
			"target":34963
		},
		{
			"buffer":0,
			"byteLength":864,
			"byteOffset":57240,
			"target":34962
		},
		{
			"buffer":0,
			"byteLength":864,
			"byteOffset":58104,
			"target":34962
		},
		{
			"buffer":0,
			"byteLength":576,
			"byteOffset":58968,
			"target":34962
		},
		{
			"buffer":0,
			"byteLength":504,
			"byteOffset":59544,
			"target":34963
		},
		{
			"buffer":0,
			"byteLength":5760,
			"byteOffset":60048,
			"target":34962
		},
		{
			"buffer":0,
			"byteLength":5760,
			"byteOffset":65808,
			"target":34962
		},
		{
			"buffer":0,
			"byteLength":3840,
			"byteOffset":71568,
			"target":34962
		},
		{
			"buffer":0,
			"byteLength":1440,
			"byteOffset":75408,
			"target":34963
		},
		{
			"buffer":0,
			"byteLength":5091,
			"byteOffset":76848
		}
	],
	"samplers":[
		{
			"magFilter":9729,
			"minFilter":9987,
			"wrapS":33648,
			"wrapT":33648
		}
	],
	"buffers":[
		{
			"byteLength":81940,
			"uri":"data:application/octet-stream;base64,"
		}
	]
}
