{
	"asset":{
		"generator":"Khronos glTF Blender I/O v3.6.27",
		"version":"2.0"
	},
	"scene":0,
	"scenes":[
		{
			"name":"Scene",
			"nodes":[
				0
			]
		}
	],
	"nodes":[
		{
			"mesh":0,
			"name":"Plane"
		}
	],
	"materials":[
		{
			"doubleSided":true,
			"name":"jetnose01",
			"pbrMetallicRoughness":{}
		},
		{
			"doubleSided":true,
			"name":"jetwings01",
			"pbrMetallicRoughness":{}
		},
		{
			"doubleSided":true,
			"name":"jettop01",
			"pbrMetallicRoughness":{}
		},
		{
			"doubleSided":true,
			"name":"jetbottom01",
			"pbrMetallicRoughness":{}
		}
	],
	"meshes":[
		{
			"name":"Plane",
			"primitives":[
				{
					"attributes":{
						"POSITION":0,
						"NORMAL":1,
						"TEXCOORD_0":2
					},
					"indices":3,
					"material":0
				},
				{
					"attributes":{
						"POSITION":4,
						"NORMAL":5,
						"TEXCOORD_0":6
					},
					"indices":7,
					"material":1
				},
				{
					"attributes":{
						"POSITION":8,
						"NORMAL":9,
						"TEXCOORD_0":10
					},
					"indices":11,
					"material":2
				},
				{
					"attributes":{
						"POSITION":12,
						"NORMAL":13,
						"TEXCOORD_0":14
					},
					"indices":15,
					"material":3
				}
			]
		}
	],
	"accessors":[
		{
			"bufferView":0,
			"componentType":5126,
			"count":85,
			"max":[
				0.4373367726802826,
				0.37768176198005676,
				-0.24177075922489166
			],
			"min":[
				-0.43661898374557495,
				-0.08751150220632553,
				-2.3947348594665527
			],
			"type":"VEC3"
		},
		{
			"bufferView":1,
			"componentType":5126,
			"count":85,
			"type":"VEC3"
		},
		{
			"bufferView":2,
			"componentType":5126,
			"count":85,
			"type":"VEC2"
		},
		{
			"bufferView":3,
			"componentType":5123,
			"count":342,
			"type":"SCALAR"
		},
		{
			"bufferView":4,
			"componentType":5126,
			"count":106,
			"max":[
				1.3905655145645142,
				0.7244480848312378,
				1.6929510831832886
			],
			"min":[
				-1.3898478746414185,
				-0.04137809947133064,
				-0.38291698694229126
			],
			"type":"VEC3"
		},
		{
			"bufferView":5,
			"componentType":5126,
			"count":106,
			"type":"VEC3"
		},
		{
			"bufferView":6,
			"componentType":5126,
			"count":106,
			"type":"VEC2"
		},
		{
			"bufferView":7,
			"componentType":5123,
			"count":216,
			"type":"SCALAR"
		},
		{
			"bufferView":8,
			"componentType":5126,
			"count":121,
			"max":[
				0.44453078508377075,
				0.28429025411605835,
				1.3169047832489014
			],
			"min":[
				-0.4438130855560303,
				-0.2001999020576477,
				-0.38291698694229126
			],
			"type":"VEC3"
		},
		{
			"bufferView":9,
			"componentType":5126,
			"count":121,
			"type":"VEC3"
		},
		{
			"bufferView":10,
			"componentType":5126,
			"count":121,
			"type":"VEC2"
		},
		{
			"bufferView":11,
			"componentType":5123,
			"count":366,
			"type":"SCALAR"
		},
		{
			"bufferView":12,
			"componentType":5126,
			"count":288,
			"max":[
				0.711148738861084,
				0.05279461666941643,
				1.9145793914794922
			],
			"min":[
				-0.7104310989379883,
				-0.25369372963905334,
				-0.915452241897583
			],
			"type":"VEC3"
		},
		{
			"bufferView":13,
			"componentType":5126,
			"count":288,
			"type":"VEC3"
		},
		{
			"bufferView":14,
			"componentType":5126,
			"count":288,
			"type":"VEC2"
		},
		{
			"bufferView":15,
			"componentType":5123,
			"count":708,
			"type":"SCALAR"
		}
	],
	"bufferViews":[
		{
			"buffer":0,
			"byteLength":1020,
			"byteOffset":0,
			"target":34962
		},
		{
			"buffer":0,
			"byteLength":1020,
			"byteOffset":1020,
			"target":34962
		},
		{
			"buffer":0,
			"byteLength":680,
			"byteOffset":2040,
			"target":34962
		},
		{
			"buffer":0,
			"byteLength":684,
			"byteOffset":2720,
			"target":34963
		},
		{
			"buffer":0,
			"byteLength":1272,
			"byteOffset":3404,
			"target":34962
		},
		{
			"buffer":0,
			"byteLength":1272,
			"byteOffset":4676,
			"target":34962
		},
		{
			"buffer":0,
			"byteLength":848,
			"byteOffset":5948,
			"target":34962
		},
		{
			"buffer":0,
			"byteLength":432,
			"byteOffset":6796,
			"target":34963
		},
		{
			"buffer":0,
			"byteLength":1452,
			"byteOffset":7228,
			"target":34962
		},
		{
			"buffer":0,
			"byteLength":1452,
			"byteOffset":8680,
			"target":34962
		},
		{
			"buffer":0,
			"byteLength":968,
			"byteOffset":10132,
			"target":34962
		},
		{
			"buffer":0,
			"byteLength":732,
			"byteOffset":11100,
			"target":34963
		},
		{
			"buffer":0,
			"byteLength":3456,
			"byteOffset":11832,
			"target":34962
		},
		{
			"buffer":0,
			"byteLength":3456,
			"byteOffset":15288,
			"target":34962
		},
		{
			"buffer":0,
			"byteLength":2304,
			"byteOffset":18744,
			"target":34962
		},
		{
			"buffer":0,
			"byteLength":1416,
			"byteOffset":21048,
			"target":34963
		}
	],
	"buffers":[
		{
			"byteLength":22464,
			"uri":"data:application/octet-stream;base64,"
		}
	]
}
