{
	"asset":{
		"generator":"Khronos glTF Blender I/O v3.6.27",
		"version":"2.0"
	},
	"extensionsUsed":[
		"KHR_materials_unlit"
	],
	"scene":0,
	"scenes":[
		{
			"extras":{
				"vs":{
					"export_list":[
						{
							"name":"sky_anim.001.dmx",
							"ob_type":"OBJECT",
							"icon":"OUTLINER_OB_MESH",
							"item_name":"sky_anim.001"
						}
					]
				},
				"blenderkitUI":{
					"assetbar_on":0,
					"turn_off":0
				},
				"blenderkit_models":{},
				"gscatter":{
					"scatter_surface":{}
				},
				"uuid":"69986ad6-4b9d-426c-89c5-8fe9750151d0",
				"assets reported":{},
				"fast64":{
					"sm64":{
						"exportType":0,
						"version":1
					}
				}
			},
			"name":"Scene",
			"nodes":[
				0
			]
		}
	],
	"nodes":[
		{
			"extras":{
				"vs":{}
			},
			"mesh":0,
			"name":"sky_anim.001",
			"scale":[
				16,
				16,
				16
			]
		}
	],
	"materials":[
		{
			"doubleSided":true,
			"extensions":{
				"KHR_materials_unlit":{}
			},
			"name":"skytex",
			"pbrMetallicRoughness":{
				"metallicFactor":0,
				"roughnessFactor":0.9
			}
		}
	],
	"meshes":[
		{
			"name":"sky_anim.001",
			"primitives":[
				{
					"attributes":{
						"COLOR_0":0,
						"POSITION":1,
						"NORMAL":2,
						"TEXCOORD_0":3
					},
					"indices":4,
					"material":0
				}
			]
		}
	],
	"accessors":[
		{
			"bufferView":0,
			"componentType":5123,
			"count":63,
			"normalized":true,
			"type":"VEC4"
		},
		{
			"bufferView":1,
			"componentType":5126,
			"count":63,
			"max":[
				0.9484078288078308,
				0.9687296152114868,
				0.9484078288078308
			],
			"min":[
				-0.9484078288078308,
				-0.21072717010974884,
				-0.9484078288078308
			],
			"type":"VEC3"
		},
		{
			"bufferView":2,
			"componentType":5126,
			"count":63,
			"type":"VEC3"
		},
		{
			"bufferView":3,
			"componentType":5126,
			"count":63,
			"type":"VEC2"
		},
		{
			"bufferView":4,
			"componentType":5123,
			"count":348,
			"type":"SCALAR"
		}
	],
	"bufferViews":[
		{
			"buffer":0,
			"byteLength":504,
			"byteOffset":0,
			"target":34962
		},
		{
			"buffer":0,
			"byteLength":756,
			"byteOffset":504,
			"target":34962
		},
		{
			"buffer":0,
			"byteLength":756,
			"byteOffset":1260,
			"target":34962
		},
		{
			"buffer":0,
			"byteLength":504,
			"byteOffset":2016,
			"target":34962
		},
		{
			"buffer":0,
			"byteLength":696,
			"byteOffset":2520,
			"target":34963
		}
	],
	"buffers":[
		{
			"byteLength":3216,
			"uri":"data:application/octet-stream;base64,"
		}
	]
}
